HIERARCHY
ROOT hip
{
	OFFSET 0.000000 0.000000 0.000000 
	CHANNELS 6 Xposition Yposition Zposition Zrotation Yrotation Xrotation
	JOINT abdomen
	{
		OFFSET 0.000000 20.688101 -0.731520 
		CHANNELS 3 Zrotation Xrotation Yrotation
		JOINT chest
		{
			OFFSET 0.000000 11.704300 -0.487680 
			CHANNELS 3 Zrotation Xrotation Yrotation
			JOINT neck
			{
				OFFSET 0.000000 22.189400 -2.194560 
				CHANNELS 3 Zrotation Xrotation Yrotation
				JOINT head
				{
					OFFSET -0.243840 7.071330 1.219200 
					CHANNELS 3 Zrotation Xrotation Yrotation
					End Site
					{
						OFFSET 1.000000 0.000000 0.000000 
					}
				}
			}
			JOINT rCollar
			{
				OFFSET -2.682240 19.263399 -4.876800 
				CHANNELS 3 Zrotation Xrotation Yrotation
				JOINT rShldr
				{
					OFFSET -8.778240 -1.950730 1.463040 
					CHANNELS 3 Zrotation Xrotation Yrotation
					JOINT rForeArm
					{
						OFFSET -28.174200 -1.711500 0.487680 
						CHANNELS 3 Zrotation Xrotation Yrotation
						JOINT rHand
						{
							OFFSET -22.587900 0.773209 7.071360 
							CHANNELS 3 Zrotation Xrotation Yrotation
							End Site
							{
								OFFSET -1.782710 -1.182140 1.430490 
							}
						}
					}
				}
			}
			JOINT lCollar
			{
				OFFSET 2.682240 19.263399 -4.876800 
				CHANNELS 3 Zrotation Xrotation Yrotation
				JOINT lShldr
				{
					OFFSET 8.778240 -1.950730 1.463040 
					CHANNELS 3 Zrotation Xrotation Yrotation
					JOINT lForeArm
					{
						OFFSET 28.174200 -1.711500 0.487680 
						CHANNELS 3 Zrotation Xrotation Yrotation
						JOINT lHand
						{
							OFFSET 22.587900 0.773209 7.071360 
							CHANNELS 3 Zrotation Xrotation Yrotation
							End Site
							{
								OFFSET 1.782710 -1.182140 1.430490 
							}
						}
					}
				}
			}
		}
	}
	JOINT rThigh
	{
		OFFSET -8.778240 4.350840 1.219200 
		CHANNELS 3 Zrotation Xrotation Yrotation
		JOINT rShin
		{
			OFFSET 0.000000 -38.526772 -1.463040 
			CHANNELS 3 Zrotation Xrotation Yrotation
			JOINT rFoot
			{
				OFFSET 0.731520 -45.110401 -5.120640 
				CHANNELS 3 Zrotation Xrotation Yrotation
				End Site
				{
					OFFSET -1.122100 -3.699640 12.103000 
				}
			}
		}
	}
	JOINT lThigh
	{
		OFFSET 8.778240 4.350840 1.219200 
		CHANNELS 3 Zrotation Xrotation Yrotation
		JOINT lShin
		{
			OFFSET 0.000000 -38.526772 -1.463040 
			CHANNELS 3 Zrotation Xrotation Yrotation
			JOINT lFoot
			{
				OFFSET -0.731520 -45.110401 -5.120640 
				CHANNELS 3 Zrotation Xrotation Yrotation
				End Site
				{
					OFFSET 1.122100 -3.699640 12.103000 
				}
			}
		}
	}
}
MOTION
Frames: 11
Frame Time: 0.008333
48.2663990000000	89.0448000000000	-9.62762000000000	2.25219064365563	-0.0824000000000000	2.07230000000000	-1.88707000000000	6.43056000000000	-10.0131000000000	2.17146000000000	-2.54091000000000	-2.79725000000000	-0.848561000000000	0.763566000000000	3.35903000000000	0.217217000000000	-34.5914990000000	7.20663000000000	0	0	0	106.153999000000	33.9253010000000	-53.2728000000000	-27.2290990000000	-27.1359000000000	62.6912990000000	-0.153458000000000	-11.0925000000000	-1.57895000000000	0	0	0	-58.3973010000000	50.8089980000000	-15.3298000000000	25.7327000000000	-46.7715990000000	-97.2095030000000	1.07541000000000	-28.1023010000000	4.30296000000000	9.47854000000000	-45.4767990000000	14.5577000000000	-0.924671000000000	57.4394000000000	1.32372000000000	-4.75652000000000	-11.0077000000000	-12.8062000000000	-8.82531000000000	9.51942000000000	-3.90359000000000	0.0976520000000000	26.1045000000000	-0.556038000000000	-0.447775000000000	21.7541010000000	3.20618000000000
48.3708990000000	89.4439010000000	-7.39693000000000	2.59099733640697	0.166700000000000	2.23220000000000	-1.90103000000000	5.90640000000000	-10.0576000000000	2.07667000000000	-2.29436000000000	-2.79997000000000	-0.705017000000000	0.553958000000000	3.33886000000000	-0.212965000000000	-33.9600980000000	6.98278000000000	0	0	0	106.428001000000	33.0386010000000	-53.2449990000000	-27.3134990000000	-27.4475000000000	63.1853980000000	-0.158566000000000	-11.2773000000000	-1.60592000000000	0	0	0	-58.9810980000000	51.9267010000000	-14.4419000000000	25.7665000000000	-46.7106020000000	-97.0756000000000	1.13629000000000	-28.7775000000000	4.42712000000000	8.65573000000000	-44.2149010000000	14.1767000000000	-0.743679000000000	53.4122010000000	1.07004000000000	-4.75189000000000	-12.0928000000000	-12.5408000000000	-8.81003000000000	9.56150000000000	-3.71328000000000	0.127209000000000	27.1392990000000	-0.513113000000000	-0.662283000000000	21.4156000000000	4.03786000000000
48.4855000000000	89.7955020000000	-5.20281000000000	2.91219951869901	0.355800000000000	2.34950000000000	-1.89347000000000	5.59107000000000	-10.1457000000000	1.96252000000000	-2.15039000000000	-2.81305000000000	-0.893998000000000	0.610903000000000	3.36920000000000	0.00279200000000000	-33.8513980000000	7.15816000000000	0	0	0	106.665001000000	32.4105000000000	-53.1394000000000	-27.4022010000000	-27.7857000000000	63.7150000000000	-0.166572000000000	-11.5611000000000	-1.64740000000000	0	0	0	-59.8652990000000	52.9566000000000	-13.2084000000000	25.8032000000000	-46.6435010000000	-96.9294970000000	1.16290000000000	-29.0646990000000	4.48048000000000	7.83713000000000	-42.9193990000000	13.8529000000000	-0.604056000000000	49.6008990000000	0.844036000000000	-4.64379000000000	-13.0584000000000	-12.0204000000000	-8.82587000000000	9.37142000000000	-3.33941000000000	0.163222000000000	28.6151010000000	-0.470092000000000	-0.932314000000000	20.9328990000000	5.27893000000000
48.5374980000000	90.0451970000000	-3.00471000000000	3.19719567848022	0.448300000000000	2.35270000000000	-1.89553000000000	5.40962000000000	-10.2479000000000	1.82182000000000	-2.07101000000000	-2.82998000000000	-1.30253000000000	0.852406000000000	3.42549000000000	0.649966000000000	-34.1077000000000	7.58442000000000	0	0	0	106.875999000000	31.9508000000000	-52.9347990000000	-27.4923990000000	-28.1455990000000	64.2826000000000	-0.176770000000000	-11.9072000000000	-1.69814000000000	0	0	0	-60.9686010000000	53.9264980000000	-11.7146000000000	25.8442000000000	-46.5670010000000	-96.7645030000000	1.16991000000000	-29.1437000000000	4.49503000000000	6.98243000000000	-41.6076010000000	13.5483000000000	-0.498417000000000	45.9384000000000	0.636986000000000	-4.42835000000000	-13.9190000000000	-11.2767000000000	-8.88867000000000	8.93528000000000	-2.84443000000000	0.202731000000000	30.5461010000000	-0.428715000000000	-1.19320000000000	20.0592000000000	6.82967000000000
48.6060980000000	90.2427980000000	-0.780882000000000	3.43591573607704	0.512700000000000	2.25600000000000	-1.89432000000000	5.34065000000000	-10.3311000000000	1.69732000000000	-2.00771000000000	-2.84111000000000	-1.73727000000000	1.10682000000000	3.47886000000000	1.31491000000000	-34.4677010000000	8.02168000000000	0	0	0	107.033997000000	31.6193010000000	-52.6074980000000	-27.5763000000000	-28.4978010000000	64.8464970000000	-0.186709000000000	-12.2269000000000	-1.74517000000000	0	0	0	-62.3004000000000	54.8576010000000	-10.0326000000000	25.8918000000000	-46.4779010000000	-96.5718990000000	1.16740000000000	-29.1226010000000	4.49083000000000	6.18713000000000	-40.3112980000000	13.2609000000000	-0.425964000000000	42.6209980000000	0.458536000000000	-4.22189000000000	-14.7418000000000	-10.6024000000000	-8.90762000000000	8.34574000000000	-2.27932000000000	0.244301000000000	32.7939000000000	-0.397587000000000	-1.36812000000000	19.0258010000000	8.37944000000000
48.7316020000000	90.3833010000000	1.45082000000000	3.62775949628911	0.533100000000000	2.13660000000000	-1.87697000000000	5.36281000000000	-10.3624000000000	1.63179000000000	-1.91198000000000	-2.83683000000000	-2.00385000000000	1.20255000000000	3.50027000000000	1.57069000000000	-34.6741980000000	8.22230000000000	0	0	0	107.109001000000	31.3754010000000	-52.1358990000000	-27.6483000000000	-28.8160000000000	65.3623960000000	-0.193367000000000	-12.4312000000000	-1.77532000000000	0	0	0	-63.8657990000000	55.7746010000000	-8.23859000000000	25.9478000000000	-46.3728980000000	-96.3435970000000	1.16586000000000	-29.1094000000000	4.48822000000000	5.54616000000000	-39.0624010000000	12.9875000000000	-0.380412000000000	39.8455010000000	0.315300000000000	-4.15500000000000	-15.5946000000000	-10.2947000000000	-8.79592000000000	7.69602000000000	-1.69421000000000	0.288797000000000	35.2201000000000	-0.386383000000000	-1.42477000000000	18.0699010000000	9.63232000000000
48.6782000000000	90.4496990000000	3.77217000000000	3.78023109905041	0.648000000000000	1.85960000000000	-1.88440000000000	5.48663000000000	-10.3332000000000	1.65086000000000	-1.76145000000000	-2.81581000000000	-2.01277000000000	1.06532000000000	3.47879000000000	1.18665000000000	-34.6489980000000	8.06620000000000	0	0	0	107.107002000000	31.1923010000000	-51.5190010000000	-27.7087000000000	-29.0933990000000	65.8103030000000	-0.195858000000000	-12.5033000000000	-1.78599000000000	0	0	0	-65.7128980000000	56.7132990000000	-6.32897000000000	26.0058990000000	-46.2596020000000	-96.1029970000000	1.16258000000000	-29.0718990000000	4.48135000000000	5.05394000000000	-37.8669010000000	12.7177000000000	-0.347779000000000	37.6931990000000	0.201284000000000	-4.32534000000000	-16.5641000000000	-10.5179000000000	-8.53774000000000	7.03943000000000	-1.07332000000000	0.339652000000000	37.8040010000000	-0.401316000000000	-1.36304000000000	17.2038990000000	10.4946000000000
48.6348000000000	90.4070970000000	6.06683000000000	3.90546859739736	0.789000000000000	1.63960000000000	-1.90887000000000	5.71812000000000	-10.2612000000000	1.72681000000000	-1.58513000000000	-2.78278000000000	-1.88039000000000	0.796139000000000	3.43101000000000	0.429021000000000	-34.5323980000000	7.70325000000000	0	0	0	107.038002000000	31.0897010000000	-50.7621990000000	-27.7624000000000	-29.3475000000000	66.2143020000000	-0.195484000000000	-12.4882000000000	-1.78378000000000	0	0	0	-67.8471980000000	57.6407010000000	-4.24911000000000	26.0667990000000	-46.1363980000000	-95.8467030000000	1.15385000000000	-28.9729000000000	4.46315000000000	4.66788000000000	-36.7086980000000	12.4533000000000	-0.319630000000000	36.0497020000000	0.102670000000000	-4.67237000000000	-17.5858990000000	-11.0938000000000	-8.17007000000000	6.31653000000000	-0.400328000000000	0.401000000000000	40.6142010000000	-0.439704000000000	-1.21379000000000	16.3235000000000	11.1359000000000
48.7402990000000	90.1977010000000	8.25021000000000	4.01537305320448	0.941500000000000	1.43540000000000	-1.86506000000000	6.02927000000000	-10.1527000000000	1.82230000000000	-1.41156000000000	-2.73723000000000	-1.72074000000000	0.486397000000000	3.36905000000000	-0.392704000000000	-34.3972020000000	7.28516000000000	0	0	0	106.884003000000	31.0956000000000	-49.8522000000000	-27.8118000000000	-29.5891990000000	66.5952990000000	-0.192320000000000	-12.3904000000000	-1.76935000000000	0	0	0	-70.1930010000000	58.4817010000000	-2.01332000000000	26.1420990000000	-45.9859010000000	-95.5277020000000	1.14855000000000	-28.9128000000000	4.45213000000000	4.42600000000000	-35.5864980000000	12.2081000000000	-0.297756000000000	34.8181000000000	0.0153530000000000	-5.08637000000000	-18.5035000000000	-11.8049000000000	-7.68847000000000	5.45222000000000	0.276286000000000	0.476756000000000	43.6454010000000	-0.499241000000000	-1.02162000000000	15.4922000000000	11.6632000000000
48.7237010000000	89.8714980000000	10.4785000000000	4.11641538308838	1.07480000000000	0.972600000000000	-1.66766000000000	6.39204000000000	-10.0138000000000	1.90009000000000	-1.26926000000000	-2.67862000000000	-1.64734000000000	0.227521000000000	3.30493000000000	-0.972670000000000	-34.3181000000000	6.96165000000000	0	0	0	106.623001000000	31.2383000000000	-48.7738000000000	-27.8588010000000	-29.8283000000000	66.9748000000000	-0.186545000000000	-12.2143000000000	-1.74336000000000	0	0	0	-72.6493000000000	59.1624980000000	0.342615000000000	26.2421000000000	-45.7892990000000	-95.1008990000000	1.15539000000000	-28.9925000000000	4.46666000000000	4.36505000000000	-34.4991990000000	11.9956000000000	-0.285774000000000	33.9012990000000	-0.0633940000000000	-5.43409000000000	-19.1664010000000	-12.4247000000000	-7.08768000000000	4.37173000000000	0.908190000000000	0.570834000000000	46.8927990000000	-0.578072000000000	-0.827103000000000	14.7720000000000	12.1810000000000
48.5131990000000	89.5132980000000	12.6693000000000	4.20535042213419	1.08310000000000	0.603900000000000	-1.27356000000000	6.84468000000000	-9.85811000000000	1.95987000000000	-1.14830000000000	-2.61014000000000	-1.69430000000000	0.00707300000000000	3.24527000000000	-1.21515000000000	-34.3101010000000	6.78657000000000	0	0	0	106.252998000000	31.5151000000000	-47.5027010000000	-27.9037990000000	-30.0667000000000	67.3561020000000	-0.177020000000000	-11.9159000000000	-1.69942000000000	0	0	0	-75.1887970000000	59.6436000000000	2.76244000000000	26.3634000000000	-45.5367010000000	-94.5673980000000	1.18266000000000	-29.3017010000000	4.52352000000000	4.52245000000000	-33.3810010000000	11.8327000000000	-0.280498000000000	33.2873990000000	-0.136675000000000	-5.75807000000000	-19.6071000000000	-13.0656000000000	-6.33870000000000	3.07278000000000	1.47834000000000	0.691784000000000	50.4112010000000	-0.682972000000000	-0.631699000000000	14.1453000000000	12.7393000000000
